<?xml version="1.0" encoding="utf-8"?>
<!-- Generator: Adobe Illustrator 21.1.0, SVG Export Plug-In . SVG Version: 6.00 Build 0)  -->
<svg version="1.1" id="Livello_1" xmlns="http://www.w3.org/2000/svg" xmlns:xlink="http://www.w3.org/1999/xlink" x="0px" y="0px"
	 viewBox="0 0 30 34" style="enable-background:new 0 0 30 34;" xml:space="preserve" class="round-number">
	<path class="circle" d="M30.1,17c0,4.1-2.8,9.4-6.2,11.7l-1.4,0.9c-4.1,2.7-10.7,2.7-14.7,0l-1.4-0.9C2.9,26.4,0.1,21.1,0.1,17l0,0
		c0-4.1,2.8-9.4,6.2-11.7l1.4-0.9c4.1-2.7,10.7-2.7,14.7,0l1.4,0.9C27.3,7.6,30.1,12.9,30.1,17L30.1,17z"/>
	<path class="number" d="M18.8,14.7c0,1.2,0,2.3,0,3.5c0,0.7,0.1,1.1,1,1.1c0.8,0,1.1,0.5,1.1,1.2s-0.4,1.1-1.1,1.1
		c-0.8,0-0.9,0.4-0.9,1.1c0,0.9,0.3,2.2-1.3,2.2c-1.5,0-1.2-1.2-1.2-2.1s-0.3-1.2-1.2-1.2c-1.4,0-2.8,0-4.1,0c-1.5,0-2-1-1.3-2.3
		c1.8-3,3.7-6.1,5.6-9.1C16,9.3,16.8,9,17.8,9.3c1,0.3,1.1,1.1,1.1,2C18.8,12.4,18.8,13.5,18.8,14.7z"/>
	<path class="circle" d="M16.5,12.6c0,2,0,4,0,5.9c0,0.5-0.3,0.8-0.8,0.7c-1-0.1-2.4,0.5-2.9-0.2c-0.5-0.6,0.6-1.6,1-2.4
		c0.7-1.4,1.5-2.8,2.3-4.1C16.3,12.5,16.4,12.6,16.5,12.6z"/>
	<path class="number" d="M21.9,9.2c0,0.7-0.5,1.1-1.1,1.1s-1-0.5-1-1.1s0.5-1.1,1.1-1.1S21.9,8.6,21.9,9.2z"/>
	<path class="circle" d="M21.2,9.2c0,0.2-0.1,0.4-0.4,0.4c-0.2,0-0.3-0.2-0.3-0.4s0.1-0.4,0.4-0.4C21.1,8.8,21.2,9,21.2,9.2z"/>
</svg>
